<svg xmlns="http://www.w3.org/2000/svg" viewBox="0 0 32.01 32.01">
  <defs/>
  <path fill="#fff" d="M17.31 7.74c-.63 0-1.26.04-1.72.14a8.09 8.09 0 00-5.6 4.32c-1.1 2.3-1.04 4.35-.21 7.15.32 1.3.36 1.86.17 2.75-.17.84-.38 1.4-.71 1.87-.17.23-.3.44-.3.46a11.2 11.2 0 003.61-.81l.62-.29.6.27a9.1 9.1 0 005.06.62 8.37 8.37 0 005.46-3.74h.02c1.96-3.7 1.64-7.2-1.23-10.4l-.02.02a8.4 8.4 0 00-4.02-2.19c-.47-.1-1.1-.16-1.73-.17z"/>
  <g fill="#8338ec" transform="translate(-28.73 -92.78)">
    <path d="M45.88 93.04a15.74 15.74 0 00-6.8 1.59 15.74 15.74 0 00-8.75 15.93 15.74 15.74 0 0012.1 13.56 15.74 15.74 0 0016.82-6.92l-6.23-3.95a8.37 8.37 0 01-5.46 3.75 9.1 9.1 0 01-5.06-.62l-.6-.27-.62.28c-.75.35-2.1.7-2.98.78-.35.04-.63.05-.63.03 0-.01.13-.22.3-.45.33-.48.54-1.03.72-1.87.18-.9.14-1.44-.18-2.75-.83-2.8-.9-4.86.21-7.15a8.09 8.09 0 015.6-4.32c.92-.2 2.52-.18 3.45.03a8.4 8.4 0 014.02 2.19l5.23-5.3a15.74 15.74 0 00-11.14-4.54z" opacity=".99"/>
    <rect width="2" height="2" x="45.1" y="107.83" ry="1"/>
    <rect width="2" height="2" x="48.81" y="107.83" ry="1"/>
    <rect width="2" height="2" x="41.4" y="107.83" ry="1"/>
  </g>
</svg>
